<?xml version="1.0" encoding="UTF-8"?>
<svg version="1.1" xmlns="http://www.w3.org/2000/svg" width="512" height="512">
<path d="M0 0 C168.96 0 337.92 0 512 0 C512 168.96 512 337.92 512 512 C343.04 512 174.08 512 0 512 C0 343.04 0 174.08 0 0 Z " fill="#FCC600" transform="translate(0,0)"/>
<path d="M0 0 C12.66375 -0.061875 25.3275 -0.12375 38.375 -0.1875 C42.3354834 -0.21481201 46.2959668 -0.24212402 50.37646484 -0.27026367 C55.30981445 -0.28381348 55.30981445 -0.28381348 57.63809204 -0.28633118 C59.22316027 -0.29086054 60.8082199 -0.3012448 62.39321899 -0.31672668 C82.43151478 -0.50222729 103.79467096 0.81761474 118.94140625 15.56640625 C122.16012694 19.37145936 124.18960507 23.38229664 126 28 C126.5878125 29.423125 126.5878125 29.423125 127.1875 30.875 C132.46463011 51.17165427 132.72965218 75.14111828 122.33203125 93.89453125 C114.58299648 106.14300557 102.6230817 110.65406641 88.98681641 114.04150391 C83.65328993 115.21163647 78.49947618 115.25383227 73.05859375 115.1953125 C72.05031021 115.1924826 71.04202667 115.18965271 70.00318909 115.18673706 C66.81450017 115.17563177 63.62610259 115.15054545 60.4375 115.125 C58.26237388 115.11495772 56.08724331 115.10583406 53.91210938 115.09765625 C48.60787311 115.07743423 43.30425881 115.0382672 38 115 C38 127.21 38 139.42 38 152 C25.46 152 12.92 152 0 152 C0 101.84 0 51.68 0 0 Z " fill="#010100" transform="translate(298,180)"/>
<path d="M0 0 C0 11.22 0 22.44 0 34 C-5.03418413 33.28083084 -9.69286757 32.37901369 -14.5625 31.0625 C-26.82695546 27.76101404 -39.00894764 26.65390553 -51.6875 26.6875 C-52.91533203 26.67138672 -54.14316406 26.65527344 -55.40820312 26.63867188 C-67.79531197 26.47631662 -67.79531197 26.47631662 -78.73706055 31.47924805 C-81.85976745 35.23941455 -81.40419029 39.33564409 -81 44 C-80.33333333 47 -80.33333333 47 -78 49 C-69.8986273 52.49104499 -60.92341566 53.04887882 -52.25 54 C-12.69058403 58.38305646 -12.69058403 58.38305646 -0.75 72.5625 C7.24499705 84.16179901 7.25207931 98.23171182 5.52734375 111.6875 C3.36971547 122.64360051 -1.63113889 131.68409536 -11 138 C-14.57321508 139.93989635 -18.21251294 141.52739026 -22 143 C-22.76441406 143.29777344 -23.52882813 143.59554687 -24.31640625 143.90234375 C-36.88001962 148.41985053 -49.51093405 148.36148719 -62.6875 148.3125 C-63.64309814 148.31134186 -64.59869629 148.31018372 -65.58325195 148.30899048 C-84.38446239 148.26385212 -101.74778529 146.97787674 -120 142 C-120 130.45 -120 118.9 -120 107 C-110.875 109.375 -110.875 109.375 -108.09716797 110.11083984 C-95.93071605 113.21110304 -83.95379384 114.33537212 -71.44897461 114.26074219 C-69.30358996 114.2499552 -67.15903253 114.26074739 -65.01367188 114.2734375 C-54.38242206 114.28505435 -43.99801468 114.25948847 -35 108 C-33.64718629 105.29437257 -33.79390638 103.08106345 -33.75 100.0625 C-33.72421875 99.00160156 -33.6984375 97.94070313 -33.671875 96.84765625 C-34.0512089 93.55557993 -34.53462822 93.05594586 -37 91 C-42.63875178 88.48648551 -47.6956536 87.43902861 -53.8125 86.9375 C-55.04093628 86.81918823 -55.04093628 86.81918823 -56.29418945 86.69848633 C-60.49266488 86.29567317 -64.69409103 85.94436921 -68.8984375 85.609375 C-84.98030693 84.24650471 -100.13417696 81.33430313 -111.8125 69.3125 C-119.37867723 60.1839335 -120.20832652 48.72296456 -120.3125 37.375 C-120.34150391 36.34503906 -120.37050781 35.31507813 -120.40039062 34.25390625 C-120.49447141 22.74710264 -117.37773434 14.41771678 -109.3515625 6.15625 C-106.10297912 3.17748251 -102.9711235 0.90848819 -99 -1 C-98.27167969 -1.35578125 -97.54335937 -1.7115625 -96.79296875 -2.078125 C-67.34561411 -14.50629987 -29.36577475 -9.035623 0 0 Z " fill="#010100" transform="translate(268,186)"/>
<path d="M0 0 C12.87 0 25.74 0 39 0 C39 50.16 39 100.32 39 152 C26.13 152 13.26 152 0 152 C0 101.84 0 51.68 0 0 Z " fill="#040300" transform="translate(85,180)"/>
<path d="M0 0 C5.383125 -0.0825 10.76625 -0.165 16.3125 -0.25 C17.98739502 -0.28641602 19.66229004 -0.32283203 21.38793945 -0.36035156 C29.64021669 -0.46660639 37.71200411 -0.44984611 45 4 C52.65577086 12.53709734 52.4425476 21.03843649 52 32 C51.34627401 37.87525892 49.92314453 42.42299804 46 47 C39.3089801 51.25792175 31.99872518 52.25805424 24.21875 52.1953125 C22.93935547 52.19031738 21.65996094 52.18532227 20.34179688 52.18017578 C18.74400391 52.16196777 17.14621094 52.14375977 15.5 52.125 C10.385 52.08375 5.27 52.0425 0 52 C0 34.84 0 17.68 0 0 Z " fill="#F8C300" transform="translate(336,212)"/>
</svg>
